# AST/ASF file generated using VICON BodyLanguage
# -----------------------------------------------
:version 1.10
:name VICON
:units
  mass 1.0
  length 0.45
  angle deg
:documentation
   .ast/.asf automatically generated from VICON data using
   VICON BodyBuilder and BodyLanguage model FoxedUp or BRILLIANT.MOD
:root
   order TX TY TZ RX RY RZ
   axis XYZ
   position 0 0 0  
   orientation 0 0 0 
:bonedata
  begin
     id 1 
     name lhipjoint
     direction 0.535335 -0.74333 0.401095 
     length 2.04549 
     axis 0 0 0  XYZ
  end
  begin
     id 2 
     name lfemur
     direction 0.34202 -0.939693 0  
     length 6.95643  
     axis 0 0 20  XYZ
    dof rx ry rz
    limits (-160.0 20.0)
           (-70.0 70.0)
           (-60.0 70.0)
  end
  begin
     id 3 
     name ltibia
     direction 0.34192 -0.939729 0   
     length 5.55969   
     axis 0 0 20   XYZ
    dof rx
    limits (-10.0 170.0)
  end
  begin
     id 4 
     name lfoot
     direction 0.216943 -0.596046 0.773088   
     length 2.27918   
     axis -90 7.62852e-016 20   XYZ
    dof rx rz
    limits (-45.0 90.0)
           (-70.0 20.0)
  end
  begin
     id 5 
     name ltoes
     direction 1.53519e-011 -4.21748e-011 1   
     length 1.05562   
     axis -90 7.62852e-016 20   XYZ
    dof rx
    limits (-90.0 20.0)
  end
  begin
     id 6 
     name rhipjoint
     direction -0.576368 -0.719173 0.38806   
     length 2.1142  
     axis 0 0 0  XYZ 
  end
  begin
     id 7 
     name rfemur
     direction -0.34202 -0.939693 0   
     length 7.07928   
     axis 0 0 -20   XYZ
    dof rx ry rz
    limits (-160.0 20.0)
           (-70.0 70.0)
           (-70.0 60.0)
  end
  begin
     id 8 
     name rtibia
     direction -0.34202 -0.939693 0   
     length 5.79974   
     axis 0 0 -20   XYZ
    dof rx
    limits (-10.0 170.0)
 end
 begin
     id 9 
     name rfoot
     direction -0.189288 -0.520065 0.832888   
     length 2.42173  
     axis -90 -7.62852e-016 -20   XYZ
    dof rx rz
    limits (-45.0 90.0)
           (-20.0 70.0)
  end
  begin
     id 10 
     name rtoes
     direction -1.53574e-011 -4.21658e-011 1   
     length 1.14469   
     axis -90 -7.62852e-016 -20   XYZ
    dof rx
    limits (-90.0 20.0)
  end
  begin
     id 11 
     name lowerback
     direction -0.00135702 0.993803 0.111144   
     length 1.91308   
     axis 0 0 0   XYZ
    dof rx ry rz
    limits (-20.0 45.0)
           (-30.0 30.0)
           (-30.0 30.0)
  end
  begin
     id 12 
     name upperback
     direction -0.0056745 0.999813 0.0184631   
     length 1.9212   
     axis 0 0 0   XYZ
    dof rx ry rz
    limits (-20.0 45.0)
           (-30.0 30.0)
           (-30.0 30.0)
  end
  begin
     id 13 
     name thorax
     direction -0.00733434 0.999426 -0.0330788   
     length 1.94196   
     axis 0 0 0   XYZ
    dof rx ry rz
    limits (-20.0 45.0)
           (-30.0 30.0)
           (-30.0 30.0)
  end
  begin
     id 14 
     name lowerneck
     direction 0.0563074 0.996944 -0.0541571   
     length 2.34257   
     axis 0 0 0   XYZ
    dof rx ry rz
    limits (-20.0 45.0)
           (-30.0 30.0)
           (-30.0 30.0)
  end
  begin
     id 15 
     name upperneck
     direction -0.0544519 0.976166 -0.210085   
     length 2.32506   
     axis 0 0 0   XYZ
    dof rx ry rz
    limits (-20.0 45.0)
           (-30.0 30.0)
           (-30.0 30.0)
  end
  begin
     id 16
     name head
     direction -0.0226035 0.997615 -0.0652205  
     length 2.3648  
     axis 0 0 0   XYZ
    dof rx ry rz
    limits (-20.0 45.0)
           (-30.0 30.0)
           (-30.0 30.0)
  end
  begin
     id 17 
     name lclavicle
     direction 0.92109 0.381297 -0.0787716  
     length 4.0487  
     axis 0 0 0   XYZ
    dof ry rz
    limits (-20.0 10.0)
           (0.0 20.0)
  end
  begin
     id 18 
     name lhumerus
     direction 1 -4.48986e-011 3.56724e-027   
     length 4.94991   
     axis 180 -30 -90   XYZ
    dof rx ry rz
    limits (-60.0 90.0)
           (-90.0 90.0)
           (-90.0 90.0)
  end
  begin
     id 19
     name lradius
     direction 1 -4.48981e-011 8.62147e-027   
     length 2.7606   
     axis 180 -30 -90   XYZ
    dof rx
    limits (-10.0 170.0)
  end
  begin
     id 20
     name lwrist
     direction 1 -4.48989e-011 1.59799e-026   
     length 1.3803   
     axis -1.17785e-014 90 90   XYZ
    dof ry
    limits (-180.0 0.0)
 end
  begin
     id 21 
     name lhand
     direction 1 -4.48896e-011 3.19599e-026   
     length 0.843936   
     axis -2.03931e-014 90 90   XYZ
    dof rx rz
    limits (-90.0 90.0)
           (-45.0 45.0)
  end
  begin
     id 22 
     name lfingers
     direction 1 -4.48887e-011 6.39197e-026   
     length 0.680403   
     axis -4.07862e-014 90 90   XYZ
    dof rx
    limits (0.0 90.0)
  end
  begin
     id 23
     name lthumb
     direction 0.707107 -6.348e-011 0.707107   
     length 0.976926   
     axis -90 45 2.85299e-015   XYZ
    dof rx rz
    limits (-45.0 45.0)
           (-45.0 45.0)
  end
  begin
     id 24 
     name rclavicle
     direction -0.951104 0.307692 -0.026953   
     length 4.21801  
     axis 0 0 0   XYZ 
    dof ry rz
    limits (-10.0 20.0)
           (-20.0 0.0)
  end
  begin
     id 25 
     name rhumerus
     direction -1 -4.4896e-011 -1.8171e-018  
     length 4.32982   
     axis 180 30 90   XYZ
    dof rx ry rz
    limits (-90.0 60.0)
           (-90.0 90.0)
           (-90.0 90.0)
  end
  begin
     id 26 
     name rradius
     direction -1 -4.48959e-011 8.25165e-027   
     length 3.20057   
     axis 180 30 90   XYZ
    dof rx
    limits (-10.0 170.0)
  end
  begin
     id 27 
     name rwrist
     direction -1 -4.48997e-011 1.59799e-026   
     length 1.60029   
     axis -1.17785e-014 -90 -90   XYZ
    dof ry
    limits (-180.0 0.0)
  end
  begin
     id 28
     name rhand
     direction -1 -4.49023e-011 3.19599e-026   
     length 0.960433   
     axis -2.03931e-014 -90 -90   XYZ
    dof rx rz
    limits (-90.0 90.0)
           (-45.0 45.0)
  end
  begin
     id 29
     name rfingers
     direction -1 -4.48802e-011 6.39197e-026   
     length 0.774326   
     axis -4.07862e-014 -90 -90   XYZ
    dof rx
    limits (0.0 90.0)
  end
  begin
     id 30
     name rthumb
     direction -0.707107 -6.34876e-011 0.707107   
     length 1.11178   
     axis -90 -45 -2.85299e-015   XYZ
    dof rx rz
    limits (-45.0 45.0)
           (-45.0 45.0)
  end
:hierarchy
  begin
    root lhipjoint rhipjoint lowerback
    lhipjoint lfemur
    lfemur ltibia
    ltibia lfoot
    lfoot ltoes
    rhipjoint rfemur
    rfemur rtibia
    rtibia rfoot
    rfoot rtoes
    lowerback upperback
    upperback thorax
    thorax lowerneck lclavicle rclavicle
    lowerneck upperneck
    upperneck head
    lclavicle lhumerus
    lhumerus lradius
    lradius lwrist
    lwrist lhand lthumb
    lhand lfingers
    rclavicle rhumerus
    rhumerus rradius
    rradius rwrist
    rwrist rhand rthumb
    rhand rfingers
end

#!OML:ASF C:\KaitlinTest1\Natural Motions\Nikki\Session 2\Nikki.ASF
:FULLY-SPECIFIED
:DEGREES
183
root -11.3999 16.0138 4.92422 -185.699 87.1406 -209.853
lowerback 2.0878 -2.55822 -2.15813
upperback -0.360311 -3.47021 -0.968364
thorax -1.47012 -1.71339 0.327563
lowerneck -21.146 -13.5581 -6.61132
upperneck 0.741876 37.8909 3.09826
head 159.72 62.4913 -44.7487
rclavicle -2.3059e-014 2.14687e-014
rhumerus -45.415 -12.6176 -76.6948
rradius 21.2974
rwrist 13.0932
rhand -39.8113 3.53104
rfingers 7.12502
rthumb -12.7858 -26.0574
lclavicle -2.3059e-014 2.14687e-014
lhumerus -51.8497 21.2664 68.6312
lradius 27.6358
lwrist -20.0459
lhand -38.1756 6.75587
lfingers 7.12502
lthumb -11.2086 36.4365
rfemur -41.5282 -2.79802 17.9698
rtibia 46.1685
rfoot -23.5843 -1.79206
rtoes -2.79094e-013
lfemur -40.9434 1.95244 -21.4847
ltibia 40.1253
lfoot -14.1294 -2.30098
ltoes -2.41722e-013
184
root -11.4135 15.9487 4.93166 -185.302 87.0007 -209.87
lowerback 2.60458 -2.62745 -2.20302
upperback -0.367846 -3.57922 -0.972161
thorax -1.76277 -1.76377 0.378732
lowerneck -21.564 -13.5685 -6.50953
upperneck 0.637503 37.9726 3.09838
head 159.914 62.3365 -44.6811
rclavicle -4.29375e-014 7.95139e-016
rhumerus -45.2422 -12.5541 -76.9083
rradius 21.1915
rwrist 13.2921
rhand -39.8851 3.61356
rfingers 7.12502
rthumb -12.857 -25.9704
lclavicle -4.29375e-014 7.95139e-016
lhumerus -51.9392 21.0932 68.8195
lradius 27.7551
lwrist -19.5321
lhand -38.4446 7.05615
lfingers 7.12502
lthumb -11.4681 36.7225
rfemur -42.8207 -2.63844 17.9151
rtibia 47.676
rfoot -24.0909 -2.17927
rtoes -2.40132e-013
lfemur -42.1901 1.69491 -21.4365
ltibia 41.5084
lfoot -14.6282 -2.1093
ltoes -2.11507e-013
185
root -11.414 15.8915 4.93217 -187.588 87.0655 -212.454
lowerback 3.01906 -2.60114 -2.28383
upperback -0.377186 -3.55968 -0.97741
thorax -2.0006 -1.74999 0.438976
lowerneck -21.827 -13.6065 -6.50054
upperneck 0.59793 38.11 3.06234
head 159.957 62.051 -44.6542
rclavicle -8.74653e-015 2.54444e-014
rhumerus -45.2476 -12.149 -77.2238
rradius 21.3257
rwrist 13.1281
rhand -39.9919 3.50922
rfingers 7.12502
rthumb -12.96 -26.0683
lclavicle -8.74653e-015 2.54444e-014
lhumerus -52.0297 20.8055 69.2617
lradius 27.7643
lwrist -18.854
lhand -38.656 7.34498
lfingers 7.12502
lthumb -11.6719 36.9999
rfemur -43.9018 -2.43735 17.7463
rtibia 49.094
rfoot -24.6533 -2.40388
rtoes -1.36764e-013
lfemur -43.2531 1.46707 -21.4667
ltibia 42.942
lfoot -15.2252 -1.75049
ltoes -1.20861e-013
186
root -11.4174 15.829 4.93321 -188.245 87.082 -213.331
lowerback 3.55044 -2.65898 -2.30221
upperback -0.251772 -3.65049 -1.02785
thorax -2.16964 -1.79289 0.42545
lowerneck -22.4221 -13.6195 -6.20602
upperneck 0.450587 38.0809 3.06402
head 159.722 62.1248 -44.9421
rclavicle 4.49253e-014 -2.38542e-015
rhumerus -44.8126 -12.095 -77.5976
rradius 21.1505
rwrist 13.5808
rhand -40.1675 3.78404
rfingers 7.12502
rthumb -13.1292 -25.7826
lclavicle 4.49253e-014 -2.38542e-015
lhumerus -51.8987 20.7512 69.5709
lradius 28.0047
lwrist -17.9606
lhand -38.8408 7.39507
lfingers 7.12502
lthumb -11.8501 37.0398
rfemur -44.9018 -2.28383 17.6505
rtibia 50.5717
rfoot -25.2843 -2.62671
rtoes 1.85267e-013
lfemur -44.2273 1.21878 -21.4324
ltibia 44.3866
lfoot -15.8932 -1.37762
ltoes 2.13097e-013
